<svg width="3300" height="2119" viewBox="0 0 3300 2119" fill="none" xmlns="http://www.w3.org/2000/svg">
<g clip-path="url(#clip0_720_323)">
<rect width="3300" height="2118.35" transform="translate(0 0.641602)" fill="#F5F5F5"/>
<g opacity="0.4">
<path d="M-51.4966 -65.4976C678.389 46.7925 1690.53 1323.07 1597.13 1766.87C1535.88 2057.81 818.292 2051.27 622.244 2103.74C354.891 2175.2 861.115 1907.69 964.218 1598.44C1086.72 1230.94 900.774 264.839 1490.65 434.704C2005.45 583.029 2116.93 1063.43 2485.95 1052.3C2819.71 1042.09 3079.71 638.867 3246.46 301.997" stroke="#D42B2B" stroke-opacity="0.18" stroke-width="2.80755" stroke-miterlimit="10"/>
<path d="M-51.5479 -36.0466C647.713 89.1568 1621.42 1325.16 1543.58 1750.39C1492.54 2028.97 812.932 2019.68 631.533 2066.84C380.054 2132.12 864.688 1875.03 966.923 1578.33C1089.42 1222.57 920.374 298.016 1489.84 461.807C1997.85 607.529 2100.39 1099.1 2472.73 1099.82C2807.1 1099.21 3077.36 704.71 3251.46 375.037" stroke="#D42B2B" stroke-opacity="0.18" stroke-width="2.80755" stroke-miterlimit="10"/>
<path d="M-51.6079 -6.75073C617.028 131.366 1552.3 1327 1490.08 1733.75C1449.25 1999.97 807.564 1987.93 640.813 2029.78C405.157 2088.68 868.252 1842.21 969.619 1558.01C1092.12 1214 940.015 331.089 1489.01 488.755C1990.23 631.924 2083.84 1135.95 2459.55 1147.18C2794.49 1157.39 3075.01 770.45 3256.51 447.922" stroke="#D42B2B" stroke-opacity="0.18" stroke-width="2.80755" stroke-miterlimit="10"/>
<path d="M-51.6079 22.752C586.404 173.833 1483.24 1328.89 1436.59 1717.31C1405.97 1971.04 802.205 1956.39 650.103 1992.93C430.167 2045.1 871.876 1809.39 972.324 1537.75C1095.18 1205.42 959.666 364.165 1488.25 515.654C1982.63 656.323 2067.2 1172.3 2446.28 1194.5C2781.78 1214.35 3072.61 836.242 3261.51 520.758" stroke="#D42B2B" stroke-opacity="0.18" stroke-width="2.80755" stroke-miterlimit="10"/>
<path d="M-51.6558 52.1516C556.038 216.146 1414.14 1330.52 1383.1 1700.77C1362.69 1941.94 796.9 1924.69 659.447 1955.67C455.283 2001.61 875.554 1776.62 975.033 1517.49C1098.09 1196.9 979.32 397.29 1487.43 542.604C1975.03 680.721 2050.62 1208.08 2433.17 1241.86C2769.12 1271.52 3070.37 901.983 3266.57 593.645" stroke="#D42B2B" stroke-opacity="0.18" stroke-width="2.80755" stroke-miterlimit="10"/>
<path d="M-51.7065 81.551C525.464 258.51 1345.03 1332.05 1329.56 1684.24C1319.36 1912.7 791.592 1892.99 668.736 1918.67C480.497 1957.97 879.331 1743.8 977.738 1497.22C1101.05 1188.32 998.971 430.467 1486.67 569.604C1967.37 705.22 2033.98 1244.11 2419.95 1289.28C2756.46 1328.69 3068.17 967.724 3271.62 666.582" stroke="#D42B2B" stroke-opacity="0.18" stroke-width="2.80755" stroke-miterlimit="10"/>
<path d="M-51.7065 111.002C494.891 300.875 1275.87 1332.82 1276.07 1667.75C1276.07 1883.3 786.079 1861.2 678.026 1881.61C505.609 1914.13 883.108 1711.03 980.443 1477.01C1104.06 1179.75 1018.57 463.491 1485.75 596.606C1959.66 729.619 2017.19 1280.04 2406.68 1336.7C2743.55 1385.7 3065.57 1033.67 3276.57 739.521" stroke="#D42B2B" stroke-opacity="0.18" stroke-width="2.80755" stroke-miterlimit="10"/>
<path d="M-51.7573 140.401C464.267 343.187 1206.61 1333.59 1222.58 1651.21C1232.79 1853.74 781.078 1829.35 687.366 1844.61C530.722 1870.13 887.039 1678.26 983.404 1456.7C1107.43 1170.87 1038.22 497.535 1485.29 623.504C1952.11 755.036 2000.8 1315.82 2393.82 1384.01C2731.35 1442.61 3063.58 1099.41 3281.93 812.355" stroke="#D42B2B" stroke-opacity="0.18" stroke-width="2.80755" stroke-miterlimit="10"/>
<path d="M-51.8052 169.802C433.696 385.553 1137.14 1334.05 1169.04 1634.68C1189.15 1823.99 776.028 1797.45 696.659 1807.55C555.939 1825.52 890.972 1645.5 985.908 1436.54C1110.29 1162.55 1057.37 530.815 1484.27 650.506C1944.25 779.589 1984.01 1351.55 2380.4 1431.43C2718.39 1499.52 3061.03 1165.25 3286.73 885.294" stroke="#D42B2B" stroke-opacity="0.18" stroke-width="2.80755" stroke-miterlimit="10"/>
<path d="M-51.8052 199.2C403.123 427.864 1067.47 1334.1 1115.55 1618.14C1145.36 1794.08 771.026 1765.39 705.949 1770.55C581.204 1780.4 894.8 1612.73 988.613 1416.27C1113.56 1153.97 1077.22 563.888 1483.71 677.556C1936.85 804.189 1967.63 1387.28 2367.43 1478.9C2705.94 1556.43 3058.94 1231.1 3292.04 958.281" stroke="#D42B2B" stroke-opacity="0.18" stroke-width="2.80755" stroke-miterlimit="10"/>
<path d="M-51.8564 228.6C372.549 470.228 997.392 1333.84 1062.06 1601.6C1101.26 1764.01 766.432 1733.24 714.983 1733.54C606.572 1734.15 898.73 1580.01 991.063 1396.01C1116.62 1145.35 1096.56 597.115 1482.43 704.506C1928.69 828.739 1950.48 1422.86 2353.75 1526.26C2692.77 1613.03 3056.08 1296.89 3296.53 1031.17" stroke="#D42B2B" stroke-opacity="0.18" stroke-width="2.80755" stroke-miterlimit="10"/>
<path d="M-51.9062 258.051C341.977 512.541 926.855 1333.28 1008.57 1585.12C1056.81 1733.8 760.717 1709.3 724.58 1696.49C633.318 1706.69 903.223 1547.29 994.025 1375.8C1120.3 1136.77 1116.52 630.241 1481.87 731.507C1921.34 853.239 1934.15 1458.38 2340.79 1573.68C2680.37 1669.89 3053.99 1362.73 3301.84 1104.11" stroke="#D42B2B" stroke-opacity="0.18" stroke-width="2.80755" stroke-miterlimit="10"/>
<path d="M-51.9062 287.449C311.352 554.904 855.602 1332.51 955.029 1568.58C1011.89 1703.53 755.51 1678.21 733.869 1659.48C658.635 1664.18 907.765 1514.63 996.73 1355.53C1123.87 1128.2 1136.12 663.366 1481.06 758.353C1913.68 877.636 1917.56 1493.75 2327.62 1620.94C2667.76 1726.45 3051.64 1428.42 3306.89 1176.89" stroke="#D42B2B" stroke-opacity="0.18" stroke-width="2.80755" stroke-miterlimit="10"/>
<path d="M-51.9546 316.85C280.781 597.218 783.586 1331.8 901.541 1552.04C966.465 1673.31 750.256 1647.13 743.314 1622.43C684.056 1621.56 912.413 1481.96 999.591 1335.32C1127.75 1119.62 1155.93 696.442 1480.45 785.457C1906.23 902.239 1901.18 1529.28 2314.61 1668.47C2655.31 1783.15 3049.6 1494.36 3312.05 1249.93" stroke="#D42B2B" stroke-opacity="0.18" stroke-width="2.80755" stroke-miterlimit="10"/>
<path d="M-52.0146 346.248C250.199 639.581 710.69 1331.34 848.041 1535.5C920.519 1643.25 745.041 1616.04 752.442 1585.42C709.21 1578.94 916.895 1449.4 1002.13 1314.9C1131.52 1110.74 1175.42 729.362 1479.47 812.252C1898.46 926.533 1884.48 1564.44 2301.23 1715.68C2642.54 1839.6 3046.99 1560 3316.94 1322.66" stroke="#D42B2B" stroke-opacity="0.18" stroke-width="2.80755" stroke-miterlimit="10"/>
<path d="M-52.0146 375.649C219.625 681.895 637.038 1331.6 794.499 1518.97C874.072 1613.55 739.783 1584.96 761.782 1548.42C734.526 1536.37 921.693 1416.88 1004.84 1294.85C1135.66 1102.83 1195.07 762.54 1478.65 839.407C1890.86 951.085 1867.99 1599.92 2288.06 1763.25C2630.03 1896.26 3044.64 1625.95 3322 1395.75" stroke="#D42B2B" stroke-opacity="0.18" stroke-width="2.80755" stroke-miterlimit="10"/>
<path d="M-52.0654 405.048C189.052 724.258 562.263 1332.87 741.009 1502.43C827.319 1584.35 734.577 1553.88 771.072 1511.36C759.843 1493.75 926.644 1384.52 1007.54 1274.58C1140 1094.61 1214.72 795.562 1477.89 866.254C1883.25 975.329 1851.56 1634.93 2274.84 1810.51C2617.48 1952.61 3042.29 1691.64 3327 1468.54" stroke="#D42B2B" stroke-opacity="0.18" stroke-width="2.80755" stroke-miterlimit="10"/>
<path d="M-52.1172 434.498C158.427 766.57 487.232 1335.52 687.517 1485.94C780.463 1555.71 729.32 1522.79 780.361 1474.35C785.158 1451.18 931.799 1352.27 1010.04 1254.32C1144.49 1086.65 1234.22 828.585 1476.87 893.356C1875.44 999.776 1834.97 1670.3 2261.47 1858.03C2604.77 2009.16 3039.79 1757.58 3331.85 1541.58" stroke="#D42B2B" stroke-opacity="0.18" stroke-width="2.80755" stroke-miterlimit="10"/>
<path d="M-52.1172 463.899C127.853 808.936 412.1 1339.56 634.026 1469.41C733.658 1527.69 731.463 1499.52 789.65 1437.35C813.894 1411.42 937.107 1319.96 1013.01 1234.11C1149.69 1079.04 1254.12 861.508 1476.3 920.358C1868.09 1024.07 1818.79 1705.42 2248.45 1905.45C2592.52 2065.61 3037.65 1823.37 3337.1 1614.51" stroke="#D42B2B" stroke-opacity="0.18" stroke-width="2.80755" stroke-miterlimit="10"/>
<path d="M-52.1641 493.45C97.2838 851.4 337.38 1345.12 580.744 1453.02C687.47 1500.39 722.433 1464.91 799.25 1400.45C837.786 1368.09 942.828 1288.51 1015.97 1213.99C1155.36 1072.05 1274.03 894.631 1475.75 947.459C1860.8 1048.37 1802.71 1740.69 2235.54 1952.97C2580.37 2122.11 3035.56 1889.37 3342.36 1687.55" stroke="#D42B2B" stroke-opacity="0.18" stroke-width="2.80755" stroke-miterlimit="10"/>
<path d="M-52.2153 522.7C66.71 893.614 263.371 1351.4 526.997 1436.33C641.176 1473.13 714.879 1431.23 808.284 1363.29C861.775 1324.35 948.136 1256.82 1018.42 1193.63C1160.93 1065.47 1293.58 927.097 1474.67 974.157C1853.19 1071.64 1786.48 1774.89 2222.07 2000.08C2567.92 2177.75 3032.95 1954.86 3347.16 1760.19" stroke="#D42B2B" stroke-opacity="0.18" stroke-width="2.80755" stroke-miterlimit="10"/>
<path d="M-52.2153 552.098C36.1365 935.925 190.28 1358.54 473.506 1419.79C839.317 1499.16 1121.37 911.222 1473.91 1001.26C1845.59 1096.25 1769.95 1810.61 2208.9 2047.6C2555.31 2234.71 3030.66 2020.85 3352.22 1833.23" stroke="#D42B2B" stroke-opacity="0.18" stroke-width="2.80755" stroke-miterlimit="10"/>
</g>
</g>
<defs>
<clipPath id="clip0_720_323">
<rect width="3300" height="2118.35" fill="white" transform="translate(0 0.641602)"/>
</clipPath>
</defs>
</svg>
